<svg xmlns="http://www.w3.org/2000/svg" xmlns:xlink="http://www.w3.org/1999/xlink" viewBox="0 0 24 24" version="1.1" width="48" height="48">
<g id="surface1">
<path style=" " d="M 12 2 C 10.894531 2 10 2.894531 10 4 C 10 5.105469 10.894531 6 12 6 C 13.105469 6 14 5.105469 14 4 C 14 2.894531 13.105469 2 12 2 Z M 10.59375 7 C 9.894531 7 9.210938 7.394531 8.8125 8.09375 L 6.09375 13.5 L 7.90625 14.40625 L 9 12.1875 L 9 19 L 11 19 L 11 15 L 13 15 L 13 19 L 15 19 L 15 12.1875 L 16.09375 14.40625 L 17.90625 13.59375 L 15.1875 8.1875 C 14.886719 7.488281 14.207031 7.09375 13.40625 7.09375 L 12 11 Z M 6.78125 15.125 C 5.519531 15.386719 4.460938 15.707031 3.625 16.15625 C 3.207031 16.378906 2.832031 16.632813 2.53125 16.96875 C 2.230469 17.304688 2 17.792969 2 18.3125 C 2 19.132813 2.53125 19.730469 3.125 20.15625 C 3.71875 20.582031 4.464844 20.890625 5.34375 21.15625 C 7.105469 21.683594 9.421875 22 12 22 C 14.578125 22 16.894531 21.683594 18.65625 21.15625 C 19.535156 20.890625 20.28125 20.582031 20.875 20.15625 C 21.46875 19.730469 22 19.132813 22 18.3125 C 22 17.269531 21.222656 16.59375 20.375 16.125 C 19.527344 15.65625 18.441406 15.339844 17.15625 15.125 L 16.84375 17.09375 C 17.960938 17.28125 18.851563 17.566406 19.40625 17.875 C 19.777344 18.078125 19.914063 18.25 19.96875 18.3125 C 19.9375 18.347656 19.875 18.417969 19.71875 18.53125 C 19.40625 18.753906 18.839844 19.027344 18.09375 19.25 C 16.605469 19.695313 14.421875 20 12 20 C 9.578125 20 7.394531 19.695313 5.90625 19.25 C 5.160156 19.027344 4.59375 18.753906 4.28125 18.53125 C 4.136719 18.425781 4.058594 18.347656 4.03125 18.3125 C 4.105469 18.230469 4.28125 18.089844 4.5625 17.9375 C 5.125 17.636719 6.078125 17.332031 7.21875 17.09375 Z "/>
</g>
</svg>