<svg xmlns="http://www.w3.org/2000/svg" xmlns:xlink="http://www.w3.org/1999/xlink" viewBox="0 0 48 48" version="1.1" width="48" height="48">
<g id="surface1">
<path style=" fill:#90CAF9;" d="M 42 37.5 C 42 33.910156 33.941406 31 24 31 C 14.058594 31 6 33.910156 6 37.5 C 6 41.089844 14.058594 44 24 44 C 33.941406 44 42 41.089844 42 37.5 Z "/>
<path style=" fill:#FFB74D;" d="M 24 12 C 21.792969 12 20 10.207031 20 8 C 20 5.792969 21.792969 4 24 4 C 26.207031 4 28 5.792969 28 8 C 28 10.207031 26.207031 12 24 12 "/>
<path style=" fill:#455A64;" d="M 17 21 L 17 26 L 19.625 27.75 L 20.5 39 L 27.5 39 L 28.375 27.75 L 31 26 L 31 21 C 31 17.136719 27.863281 14 24 14 C 20.132813 14 17 17.136719 17 21 "/>
</g>
</svg>